<svg xmlns="http://www.w3.org/2000/svg" width="820" height="440" viewBox="0 0 820 440"><style>text{font-family:Arial,sans-serif;fill:#222}.t{font-size:20px;font-weight:700}.l{font-size:11px}.v{font-size:12px;font-weight:600}</style><text x="20" y="28" class="t">Weighted stunting prevalence by household wealth</text><line x1="60" y1="360" x2="780" y2="360" stroke="#555"/><rect x="101.7" y="105.8" width="80.0" height="254.2" fill="#4C78A8"/><text x="141.7" y="99.8" text-anchor="middle" class="v">22.8%</text><text x="141.7" y="380" text-anchor="middle" class="l" transform="rotate(25 141.7 380)">poorest</text><rect x="223.3" y="114.3" width="80.0" height="245.7" fill="#4C78A8"/><text x="263.3" y="108.3" text-anchor="middle" class="v">22.0%</text><text x="263.3" y="380" text-anchor="middle" class="l" transform="rotate(25 263.3 380)">poorer</text><rect x="345.0" y="171.5" width="80.0" height="188.5" fill="#4C78A8"/><text x="385.0" y="165.5" text-anchor="middle" class="v">16.9%</text><text x="385.0" y="380" text-anchor="middle" class="l" transform="rotate(25 385.0 380)">middle</text><rect x="466.7" y="187.5" width="80.0" height="172.5" fill="#4C78A8"/><text x="506.7" y="181.5" text-anchor="middle" class="v">15.5%</text><text x="506.7" y="380" text-anchor="middle" class="l" transform="rotate(25 506.7 380)">richer</text><rect x="588.3" y="276.5" width="80.0" height="83.5" fill="#4C78A8"/><text x="628.3" y="270.5" text-anchor="middle" class="v">7.5%</text><text x="628.3" y="380" text-anchor="middle" class="l" transform="rotate(25 628.3 380)">richest</text></svg>